<svg width="347" height="369" viewBox="0 0 347 369" fill="none" xmlns="http://www.w3.org/2000/svg">
<g filter="url(#filter0_d_731_122)">
<path d="M20 37C20 27.6112 27.6112 20 37 20H310C319.389 20 327 27.6112 327 37V332C327 341.389 319.389 349 310 349H37C27.6112 349 20 341.389 20 332V37Z" fill="#F8F8F8"/>
<path d="M37 21H310C318.837 21 326 28.1634 326 37V332C326 340.837 318.837 348 310 348H37C28.1635 348 21 340.837 21 332V37C21 28.1634 28.1634 21 37 21Z" stroke="black" stroke-opacity="0.2" stroke-width="2"/>
</g>
<defs>
<filter id="filter0_d_731_122" x="0" y="0" width="347" height="369" filterUnits="userSpaceOnUse" color-interpolation-filters="sRGB">
<feFlood flood-opacity="0" result="BackgroundImageFix"/>
<feColorMatrix in="SourceAlpha" type="matrix" values="0 0 0 0 0 0 0 0 0 0 0 0 0 0 0 0 0 0 127 0" result="hardAlpha"/>
<feOffset/>
<feGaussianBlur stdDeviation="10"/>
<feComposite in2="hardAlpha" operator="out"/>
<feColorMatrix type="matrix" values="0 0 0 0 0 0 0 0 0 0 0 0 0 0 0 0 0 0 0.25 0"/>
<feBlend mode="normal" in2="BackgroundImageFix" result="effect1_dropShadow_731_122"/>
<feBlend mode="normal" in="SourceGraphic" in2="effect1_dropShadow_731_122" result="shape"/>
</filter>
</defs>
</svg>
