<svg width="26" height="16" viewBox="0 0 26 16" fill="none" xmlns="http://www.w3.org/2000/svg">
<path d="M1.22852 7C0.676231 7 0.228516 7.44772 0.228516 8C0.228516 8.55228 0.676231 9 1.22852 9L1.22852 7ZM24.8817 8.7071C25.2722 8.31658 25.2722 7.68342 24.8817 7.29289L18.5178 0.928931C18.1272 0.538406 17.4941 0.538406 17.1035 0.928931C16.713 1.31946 16.713 1.95262 17.1035 2.34314L22.7604 8L17.1035 13.6569C16.713 14.0474 16.713 14.6805 17.1035 15.0711C17.4941 15.4616 18.1272 15.4616 18.5178 15.0711L24.8817 8.7071ZM1.22852 9L24.1746 9L24.1746 7L1.22852 7L1.22852 9Z" fill="#4F37BF"/>
</svg>
