<svg width="365" height="487" viewBox="0 0 365 487" fill="none" xmlns="http://www.w3.org/2000/svg">
<g filter="url(#filter0_d_1066_6)">
<path d="M20 37C20 27.6112 27.6112 20 37 20H328C337.389 20 345 27.6112 345 37V450C345 459.389 337.389 467 328 467H37C27.6112 467 20 459.389 20 450V37Z" fill="#F8F8F8"/>
<path d="M37 21H328C336.837 21 344 28.1634 344 37V450C344 458.837 336.837 466 328 466H37C28.1634 466 21 458.837 21 450V37C21 28.1635 28.1634 21 37 21Z" stroke="black" stroke-opacity="0.2" stroke-width="2"/>
</g>
<defs>
<filter id="filter0_d_1066_6" x="0" y="0" width="365" height="487" filterUnits="userSpaceOnUse" color-interpolation-filters="sRGB">
<feFlood flood-opacity="0" result="BackgroundImageFix"/>
<feColorMatrix in="SourceAlpha" type="matrix" values="0 0 0 0 0 0 0 0 0 0 0 0 0 0 0 0 0 0 127 0" result="hardAlpha"/>
<feOffset/>
<feGaussianBlur stdDeviation="10"/>
<feComposite in2="hardAlpha" operator="out"/>
<feColorMatrix type="matrix" values="0 0 0 0 0 0 0 0 0 0 0 0 0 0 0 0 0 0 0.25 0"/>
<feBlend mode="normal" in2="BackgroundImageFix" result="effect1_dropShadow_1066_6"/>
<feBlend mode="normal" in="SourceGraphic" in2="effect1_dropShadow_1066_6" result="shape"/>
</filter>
</defs>
</svg>
