<svg width="11" height="8" viewBox="0 0 11 8" fill="none" xmlns="http://www.w3.org/2000/svg">
<path d="M0.5 3.5C0.223858 3.5 2.74941e-08 3.72386 0 4C-2.74941e-08 4.27614 0.223858 4.5 0.5 4.5L0.5 3.5ZM10.8536 4.35355C11.0488 4.15829 11.0488 3.84171 10.8536 3.64645L7.67157 0.464467C7.47631 0.269204 7.15973 0.269204 6.96447 0.464467C6.7692 0.659729 6.7692 0.976311 6.96447 1.17157L9.79289 4L6.96447 6.82843C6.7692 7.02369 6.7692 7.34027 6.96447 7.53553C7.15973 7.7308 7.47631 7.7308 7.67157 7.53553L10.8536 4.35355ZM0.5 4.5L10.5 4.5L10.5 3.5L0.5 3.5L0.5 4.5Z" fill="#006A8E"/>
</svg>
