<svg width="19" height="31" viewBox="0 0 19 31" fill="none" xmlns="http://www.w3.org/2000/svg">
<path d="M1.24593 22.6974C-0.578029 24.7708 -0.375882 27.9301 1.69743 29.7541C3.77075 31.578 6.93012 31.3759 8.75407 29.3026L1.24593 22.6974ZM17.7541 19.0721C19.578 16.9988 19.3759 13.8395 17.3026 12.0155C15.2292 10.1915 12.0699 10.3937 10.2459 12.467L17.7541 19.0721ZM8.75407 1.69744C6.93012 -0.375882 3.77075 -0.578029 1.69743 1.24593C-0.375882 3.06988 -0.578029 6.22925 1.24593 8.30257L8.75407 1.69744ZM10.2459 18.533C12.0699 20.6063 15.2292 20.8085 17.3026 18.9845C19.3759 17.1605 19.578 14.0012 17.7541 11.9279L10.2459 18.533ZM8.75407 29.3026L17.7541 19.0721L10.2459 12.467L1.24593 22.6974L8.75407 29.3026ZM1.24593 8.30257L10.2459 18.533L17.7541 11.9279L8.75407 1.69744L1.24593 8.30257Z" fill="white" fill-opacity="0.4"/>
</svg>
