<svg width="27" height="15" viewBox="0 0 27 15" fill="none" xmlns="http://www.w3.org/2000/svg">
<path d="M1.58301 6.45117C1.03072 6.45117 0.583008 6.89889 0.583008 7.45117C0.583008 8.00346 1.03072 8.45117 1.58301 8.45117L1.58301 6.45117ZM25.955 8.15828C26.3455 7.76775 26.3455 7.13459 25.955 6.74406L19.591 0.380103C19.2005 -0.0104217 18.5673 -0.0104216 18.1768 0.380103C17.7863 0.770627 17.7863 1.40379 18.1768 1.79432L23.8336 7.45117L18.1768 13.108C17.7863 13.4985 17.7863 14.1317 18.1768 14.5222C18.5673 14.9128 19.2005 14.9128 19.591 14.5222L25.955 8.15828ZM1.58301 8.45117L25.2479 8.45117L25.2479 6.45117L1.58301 6.45117L1.58301 8.45117Z" fill="#4F37BF"/>
</svg>
