<svg width="1180" height="1114" viewBox="0 0 1180 1114" fill="none" xmlns="http://www.w3.org/2000/svg">
<g filter="url(#filter0_f_1298_643)">
<rect x="0.701804" y="0.0496873" width="89.4792" height="89.6081" transform="matrix(0.751991 -0.659173 0.651617 0.758548 4.9405 97.5645)" stroke="#350042"/>
</g>
<g filter="url(#filter1_f_1298_643)">
<rect x="0.681669" y="-0.1758" width="100.881" height="100.385" transform="matrix(0.504306 -0.863525 0.859031 0.511924 1037.81 630.786)" stroke="#350042"/>
</g>
<g filter="url(#filter2_f_1298_643)">
<rect x="0.665722" y="0.229867" width="89.261" height="89.8255" transform="matrix(0.897423 -0.44117 0.43402 0.900903 18.7127 44.1368)" stroke="#0278E6"/>
</g>
<g filter="url(#filter3_f_1298_643)">
<rect x="0.60705" y="0.359247" width="161.825" height="163.274" transform="matrix(0.968049 -0.250762 0.246052 0.969257 923.4 433.993)" stroke="#0278E6"/>
</g>
<g filter="url(#filter4_f_1298_643)">
<path d="M90.6786 955.667C70.1249 947.362 60.122 923.796 68.3463 903.025C76.5707 882.254 99.9034 872.157 120.457 880.461C141.011 888.766 151.014 912.332 142.789 933.103C134.565 953.874 111.232 963.972 90.6786 955.667Z" stroke="white" stroke-opacity="0.4"/>
</g>
<g filter="url(#filter5_f_1298_643)">
<path d="M82.9604 1088.25C49.716 1074.82 33.5401 1036.71 46.8405 1003.12C60.1409 969.525 97.8765 953.192 131.121 966.624C164.365 980.056 180.541 1018.17 167.241 1051.76C153.94 1085.35 116.205 1101.69 82.9604 1088.25Z" stroke="#350042"/>
</g>
<defs>
<filter id="filter0_f_1298_643" x="0.798828" y="33.4492" width="135.082" height="136.371" filterUnits="userSpaceOnUse" color-interpolation-filters="sRGB">
<feFlood flood-opacity="0" result="BackgroundImageFix"/>
<feBlend mode="normal" in="SourceGraphic" in2="BackgroundImageFix" result="shape"/>
<feGaussianBlur stdDeviation="2" result="effect1_foregroundBlur_1298_643"/>
</filter>
<filter id="filter1_f_1298_643" x="1033.32" y="538.307" width="146.473" height="147.877" filterUnits="userSpaceOnUse" color-interpolation-filters="sRGB">
<feFlood flood-opacity="0" result="BackgroundImageFix"/>
<feBlend mode="normal" in="SourceGraphic" in2="BackgroundImageFix" result="shape"/>
<feGaussianBlur stdDeviation="2" result="effect1_foregroundBlur_1298_643"/>
</filter>
<filter id="filter2_f_1298_643" x="14.7441" y="0" width="128.422" height="129.645" filterUnits="userSpaceOnUse" color-interpolation-filters="sRGB">
<feFlood flood-opacity="0" result="BackgroundImageFix"/>
<feBlend mode="normal" in="SourceGraphic" in2="BackgroundImageFix" result="shape"/>
<feGaussianBlur stdDeviation="2" result="effect1_foregroundBlur_1298_643"/>
</filter>
<filter id="filter3_f_1298_643" x="919.469" y="389" width="206.043" height="208.053" filterUnits="userSpaceOnUse" color-interpolation-filters="sRGB">
<feFlood flood-opacity="0" result="BackgroundImageFix"/>
<feBlend mode="normal" in="SourceGraphic" in2="BackgroundImageFix" result="shape"/>
<feGaussianBlur stdDeviation="2" result="effect1_foregroundBlur_1298_643"/>
</filter>
<filter id="filter4_f_1298_643" x="60.9688" y="873.053" width="89.1973" height="90.0215" filterUnits="userSpaceOnUse" color-interpolation-filters="sRGB">
<feFlood flood-opacity="0" result="BackgroundImageFix"/>
<feBlend mode="normal" in="SourceGraphic" in2="BackgroundImageFix" result="shape"/>
<feGaussianBlur stdDeviation="2" result="effect1_foregroundBlur_1298_643"/>
</filter>
<filter id="filter5_f_1298_643" x="37.6875" y="957.422" width="138.707" height="140.035" filterUnits="userSpaceOnUse" color-interpolation-filters="sRGB">
<feFlood flood-opacity="0" result="BackgroundImageFix"/>
<feBlend mode="normal" in="SourceGraphic" in2="BackgroundImageFix" result="shape"/>
<feGaussianBlur stdDeviation="2" result="effect1_foregroundBlur_1298_643"/>
</filter>
</defs>
</svg>
