<svg width="347" height="362" viewBox="0 0 347 362" fill="none" xmlns="http://www.w3.org/2000/svg">
<g filter="url(#filter0_d_867_49)">
<path d="M19.998 37C19.998 27.6112 27.6092 20 36.998 20H309.998C319.387 20 326.998 27.6112 326.998 37V325C326.998 334.389 319.387 342 309.998 342H36.9981C27.6092 342 19.998 334.389 19.998 325V37Z" fill="white"/>
<path d="M20.998 37C20.998 28.1635 28.1615 21 36.998 21H309.998C318.835 21 325.998 28.1634 325.998 37V325C325.998 333.837 318.835 341 309.998 341H36.9981C28.1615 341 20.998 333.837 20.998 325V37Z" stroke="black" stroke-opacity="0.2" stroke-width="2"/>
</g>
<defs>
<filter id="filter0_d_867_49" x="-0.00195312" y="0" width="347" height="362" filterUnits="userSpaceOnUse" color-interpolation-filters="sRGB">
<feFlood flood-opacity="0" result="BackgroundImageFix"/>
<feColorMatrix in="SourceAlpha" type="matrix" values="0 0 0 0 0 0 0 0 0 0 0 0 0 0 0 0 0 0 127 0" result="hardAlpha"/>
<feOffset/>
<feGaussianBlur stdDeviation="10"/>
<feComposite in2="hardAlpha" operator="out"/>
<feColorMatrix type="matrix" values="0 0 0 0 0 0 0 0 0 0 0 0 0 0 0 0 0 0 0.25 0"/>
<feBlend mode="normal" in2="BackgroundImageFix" result="effect1_dropShadow_867_49"/>
<feBlend mode="normal" in="SourceGraphic" in2="effect1_dropShadow_867_49" result="shape"/>
</filter>
</defs>
</svg>
