<svg width="347" height="362" viewBox="0 0 347 362" fill="none" xmlns="http://www.w3.org/2000/svg">
<g filter="url(#filter0_d_867_48)">
<path d="M20 37C20 27.6112 27.6112 20 37 20H310C319.389 20 327 27.6112 327 37V325C327 334.389 319.389 342 310 342H37C27.6112 342 20 334.389 20 325V37Z" fill="white"/>
<path d="M21 37C21 28.1635 28.1634 21 37 21H310C318.837 21 326 28.1634 326 37V325C326 333.837 318.837 341 310 341H37C28.1635 341 21 333.837 21 325V37Z" stroke="black" stroke-opacity="0.2" stroke-width="2"/>
</g>
<defs>
<filter id="filter0_d_867_48" x="0" y="0" width="347" height="362" filterUnits="userSpaceOnUse" color-interpolation-filters="sRGB">
<feFlood flood-opacity="0" result="BackgroundImageFix"/>
<feColorMatrix in="SourceAlpha" type="matrix" values="0 0 0 0 0 0 0 0 0 0 0 0 0 0 0 0 0 0 127 0" result="hardAlpha"/>
<feOffset/>
<feGaussianBlur stdDeviation="10"/>
<feComposite in2="hardAlpha" operator="out"/>
<feColorMatrix type="matrix" values="0 0 0 0 0 0 0 0 0 0 0 0 0 0 0 0 0 0 0.25 0"/>
<feBlend mode="normal" in2="BackgroundImageFix" result="effect1_dropShadow_867_48"/>
<feBlend mode="normal" in="SourceGraphic" in2="effect1_dropShadow_867_48" result="shape"/>
</filter>
</defs>
</svg>
