<svg width="49" height="109" viewBox="0 0 49 109" fill="none" xmlns="http://www.w3.org/2000/svg">
<path d="M1.11209 100.856C-0.624241 103.003 -0.291144 106.152 1.85609 107.888C4.00332 109.624 7.15157 109.291 8.88791 107.144L1.11209 100.856ZM47.8879 58.9148C49.6242 56.7675 49.2911 53.6193 47.1439 51.8829C44.9967 50.1466 41.8484 50.4797 40.1121 52.6269L47.8879 58.9148ZM8.88791 1.85609C7.15157 -0.291145 4.00332 -0.624245 1.85609 1.11209C-0.291143 2.84843 -0.62424 5.99668 1.1121 8.14391L8.88791 1.85609ZM40.1121 56.3731C41.8484 58.5203 44.9967 58.8534 47.1439 57.1171C49.2911 55.3807 49.6242 52.2325 47.8879 50.0852L40.1121 56.3731ZM8.88791 107.144L47.8879 58.9148L40.1121 52.6269L1.11209 100.856L8.88791 107.144ZM1.1121 8.14391L40.1121 56.3731L47.8879 50.0852L8.88791 1.85609L1.1121 8.14391Z" fill="#717171" fill-opacity="0.26"/>
</svg>
