<svg width="49" height="109" viewBox="0 0 49 109" fill="none" xmlns="http://www.w3.org/2000/svg">
<path d="M47.8879 8.14391C49.6242 5.99668 49.2911 2.84843 47.1439 1.11209C44.9967 -0.624241 41.8484 -0.291144 40.1121 1.85609L47.8879 8.14391ZM1.1121 50.0852C-0.624239 52.2325 -0.29114 55.3807 1.85609 57.1171C4.00332 58.8534 7.15157 58.5203 8.88791 56.3731L1.1121 50.0852ZM40.1121 107.144C41.8484 109.291 44.9967 109.624 47.1439 107.888C49.2911 106.152 49.6242 103.003 47.8879 100.856L40.1121 107.144ZM8.88791 52.6269C7.15157 50.4797 4.00332 50.1466 1.85609 51.8829C-0.29114 53.6193 -0.624239 56.7675 1.1121 58.9148L8.88791 52.6269ZM40.1121 1.85609L1.1121 50.0852L8.88791 56.3731L47.8879 8.14391L40.1121 1.85609ZM47.8879 100.856L8.88791 52.6269L1.1121 58.9148L40.1121 107.144L47.8879 100.856Z" fill="#717171" fill-opacity="0.26"/>
</svg>
