<svg width="26" height="16" viewBox="0 0 26 16" fill="none" xmlns="http://www.w3.org/2000/svg">
<path d="M1.98047 7C1.42818 7 0.980469 7.44772 0.980469 8C0.980469 8.55228 1.42818 9 1.98047 9L1.98047 7ZM25.6876 8.7071C26.0781 8.31658 26.0781 7.68342 25.6876 7.29289L19.3236 0.928931C18.9331 0.538406 18.2999 0.538406 17.9094 0.928931C17.5189 1.31946 17.5189 1.95262 17.9094 2.34314L23.5663 8L17.9094 13.6569C17.5189 14.0474 17.5189 14.6805 17.9094 15.0711C18.2999 15.4616 18.9331 15.4616 19.3236 15.0711L25.6876 8.7071ZM1.98047 9L24.9805 9L24.9805 7L1.98047 7L1.98047 9Z" fill="#4F37BF"/>
</svg>
