<svg width="347" height="248" viewBox="0 0 347 248" fill="none" xmlns="http://www.w3.org/2000/svg">
<g filter="url(#filter0_d_505_57)">
<path d="M20 37C20 27.6112 27.6112 20 37 20H310C319.389 20 327 27.6112 327 37V211C327 220.389 319.389 228 310 228H37C27.6112 228 20 220.389 20 211V37Z" fill="#F8F8F8"/>
<path d="M21 37C21 28.1634 28.1634 21 37 21H310C318.837 21 326 28.1634 326 37V211C326 219.837 318.837 227 310 227H37C28.1635 227 21 219.837 21 211V37Z" stroke="black" stroke-opacity="0.2" stroke-width="2"/>
</g>
<defs>
<filter id="filter0_d_505_57" x="0" y="0" width="347" height="248" filterUnits="userSpaceOnUse" color-interpolation-filters="sRGB">
<feFlood flood-opacity="0" result="BackgroundImageFix"/>
<feColorMatrix in="SourceAlpha" type="matrix" values="0 0 0 0 0 0 0 0 0 0 0 0 0 0 0 0 0 0 127 0" result="hardAlpha"/>
<feOffset/>
<feGaussianBlur stdDeviation="10"/>
<feComposite in2="hardAlpha" operator="out"/>
<feColorMatrix type="matrix" values="0 0 0 0 0 0 0 0 0 0 0 0 0 0 0 0 0 0 0.25 0"/>
<feBlend mode="normal" in2="BackgroundImageFix" result="effect1_dropShadow_505_57"/>
<feBlend mode="normal" in="SourceGraphic" in2="effect1_dropShadow_505_57" result="shape"/>
</filter>
</defs>
</svg>
